<?xml version="1.0" encoding="UTF-8" standalone="no"?>
<!DOCTYPE svg PUBLIC "-//W3C//DTD SVG 1.1//EN" "http://www.w3.org/Graphics/SVG/1.1/DTD/svg11.dtd">
<svg width="100%" height="100%" viewBox="0 0 97 96" version="1.1" xmlns="http://www.w3.org/2000/svg" xmlns:xlink="http://www.w3.org/1999/xlink" xml:space="preserve" xmlns:serif="http://www.serif.com/" style="fill-rule:evenodd;clip-rule:evenodd;stroke-linejoin:round;stroke-miterlimit:2;">
    <g transform="matrix(1,0,0,1,-16,-16)">
        <g transform="matrix(1.5,0,0,1.5,-68,-32)">
            <circle cx="64" cy="64" r="8" style="fill:rgb(139,139,139);"/>
        </g>
        <g transform="matrix(1.5,0,0,1.5,-32,-32)">
            <circle cx="64" cy="64" r="8" style="fill:rgb(139,139,139);"/>
        </g>
        <g transform="matrix(1.5,0,0,1.5,-32,-32)">
            <circle cx="64" cy="64" r="8" style="fill:rgb(139,139,139);"/>
        </g>
        <g transform="matrix(1.5,0,0,1.5,-32,4)">
            <circle cx="64" cy="64" r="8" style="fill:rgb(139,139,139);"/>
        </g>
        <g transform="matrix(1.5,0,0,1.5,5,-32)">
            <circle cx="64" cy="64" r="8" style="fill:rgb(139,139,139);"/>
        </g>
        <g transform="matrix(1.5,0,0,1.5,5,-68)">
            <circle cx="64" cy="64" r="8" style="fill:rgb(139,139,139);"/>
        </g>
        <g transform="matrix(0.833333,0,0,1,10.6667,0)">
            <rect x="16" y="62" width="96" height="4" style="fill:rgb(139,139,139);"/>
        </g>
        <g transform="matrix(0.391519,0.391519,-0.707107,0.707107,65.4047,10.4981)">
            <rect x="16" y="62" width="96" height="4" style="fill:rgb(139,139,139);"/>
        </g>
        <g transform="matrix(0.391519,-0.391519,0.707107,0.707107,13.4809,24.0095)">
            <rect x="16" y="62" width="96" height="4" style="fill:rgb(139,139,139);"/>
        </g>
    </g>
</svg>
