<svg xmlns="http://www.w3.org/2000/svg" viewBox="0 0 14.65 14.65"><defs><style>.b{fill:#525254;}}</style></defs><path class="b" d="M42.64,21.48l-.017-.19-.182.056a4.646,4.646,0,0,1-1.36.2,4.589,4.589,0,0,1-3.92-2.186l-.132-.218-.131.218a4.589,4.589,0,0,1-3.921,2.186,4.676,4.676,0,0,1-1.358-.2l-.181-.056-.017.189a13.388,13.388,0,0,0,.233,3.918,13.62,13.62,0,0,0,1.458,3.871,13.971,13.971,0,0,0,3.823,4.349l.091.07.092-.07a14.017,14.017,0,0,0,2.611-2.526,13.7,13.7,0,0,0,1.216-1.814,13.553,13.553,0,0,0,1.416-3.692L42.4,25.4A13.436,13.436,0,0,0,42.64,21.48Zm-3.254,1.032h.226v.444h-.226Zm0,1.162h.226v.443h-.226Zm-2.3-1.633a.424.424,0,0,1,.385-.161l.438.062.577.077a1.119,1.119,0,0,0,.5-.084v2.412a1.378,1.378,0,0,1-.5.075l-.557-.074-.458-.064a.572.572,0,0,0-.385.121Zm-1.975-.1a1.055,1.055,0,0,0,.481.08l.578-.078.437-.062a.418.418,0,0,1,.384.161v2.365a.575.575,0,0,0-.388-.122l-.459.064-.552.074c-.405,0-.489-.1-.49-.1S35.112,22.1,35.113,21.94Zm-.33.294.236-.05v2.168c.023.048.122.165.575.165l.573-.077.438-.061a.426.426,0,0,1,.389.162l.014-.008h.067l.013.007a.421.421,0,0,1,.385-.161l.438.061.577.077c.459,0,.573-.122.585-.134l.009-2.21.209.058v2.395a6.446,6.446,0,0,1-.83.064,10.908,10.908,0,0,1-1.109-.077l-.052-.008v.163a.845.845,0,0,1-.269.048.733.733,0,0,1-.257-.048v-.163l-.053.008a10.9,10.9,0,0,1-1.106.077,6.452,6.452,0,0,1-.832-.064Zm-.317.278h.223v.444h-.223Zm0,1.162h.223v.443h-.223Zm2.561,9.619a13.712,13.712,0,0,1-2.456-2.4l-.009-.011,2.466-2.4,2.47,2.4-.011.013A13.775,13.775,0,0,1,37.027,33.293Zm5.033-7.774A13.309,13.309,0,0,1,40.7,29.09l-3.668-3.529-3.665,3.522a13.285,13.285,0,0,1-1.4-3.716H42.091Z" transform="translate(-29.7 -19.08)"/></svg>
