<svg xmlns="http://www.w3.org/2000/svg" viewBox="0 0 17 17"><defs><style>.b{fill:#525254;}}</style></defs><path class="b" d="M42.64,21.48l-.017-.19-.182.056a4.646,4.646,0,0,1-1.36.2,4.589,4.589,0,0,1-3.92-2.186l-.132-.218-.131.218a4.589,4.589,0,0,1-3.921,2.186,4.676,4.676,0,0,1-1.358-.2l-.181-.056-.017.189a13.388,13.388,0,0,0,.233,3.918,13.62,13.62,0,0,0,1.458,3.871,13.971,13.971,0,0,0,3.823,4.349l.091.07.092-.07a14.017,14.017,0,0,0,2.611-2.526,13.7,13.7,0,0,0,1.216-1.814,13.553,13.553,0,0,0,1.416-3.692A13.436,13.436,0,0,0,42.64,21.48Zm-3.254,1.032Zm0,1.162Zm-2.3-1.633Zm-1.975-.1Zm-.33.294.236-.05a10.9,10.9,0,0,1-1.106.077,6.452,6.452,0,0,1-.832-.064Zm-.317.278Zm0,1.162Zm2.561,9.619a13.712,13.712,0,0,1-2.456-2.4l-.009-.011,2.466-2.4,2.47,2.4-.011.013A13.775,13.775,0,0,1,37.027,33.293Zm5.033-7.774A13.309,13.309,0,0,1,40.7,29.09l-3.668-3.529-3.665,3.522a13.285,13.285,0,0,1-1.4-3.716H42.091Z" transform="translate(-28.5 -18)"/></svg>
